# xmcd
#
# Track frame offsets:
#  150
#  9142
#  23445
#  33120
#  45392
#  55210
#  65652
#  76147
#  88287
#  103060
#  114915
#  126037
#  137687
#  147455
#  159087
#  172302
#  183130
#  193837
#  204775
#  218317
#  231042
#
# Disc length: 3245 seconds
#
# Revision: 0
# Processed by: cddbd v1.5.1PL0 Copyright (c) Steve Scherf et al.
# Submitted via: Collectorz.com_Music_Collector 6.9
#
DISCID=070cab15
DTITLE=Ferlin Husky - Country Music Is Here To Stay (The Complete Simon Crum aka Ferlin Husky On Capitol
DYEAR=1900
DGENRE=Country
TTITLE0=Don't Be Mad
TTITLE1=Country Music Is Here To Stay
TTITLE2=Cuzz Yore So Sweet
TTITLE3=Ooh, I Want You
TTITLE4=Stand Up, Sit Down, Shut Your Mouth
TTITLE5=My Gallina
TTITLE6=Country Music Fidler
TTITLE7=Morgan Poisoned The Water Hole
TTITLE8=A Hillbill's Deck Of Cards
TTITLE9=Enormity In Motion (Poetry In Motion)
TTITLE10=Bop Cat Bop
TTITLE11=Muki Ruki
TTITLE12=I Fell Out Of Love With Love
TTITLE13=I Feel Better All Over (More Than Anywhere'ws Else)
TTITLE14=Cuzz Yore So Sweet (Alternate Version)
TTITLE15=Little Red Webb
TTITLE16=It Tickles
TTITLE17=Goodbye Cruel World
TTITLE18=Excuse Me Stranger
TTITLE19=Simon Crum Needs A Hit
TTITLE20=That's What I'd Do
EXTD=
EXTT0=
EXTT1=
EXTT2=
EXTT3=
EXTT4=
EXTT5=
EXTT6=
EXTT7=
EXTT8=
EXTT9=
EXTT10=
EXTT11=
EXTT12=
EXTT13=
EXTT14=
EXTT15=
EXTT16=
EXTT17=
EXTT18=
EXTT19=
EXTT20=
PLAYORDER=
